<svg version="1.1" id="Layer_1" xmlns="http://www.w3.org/2000/svg" xmlns:xlink="http://www.w3.org/1999/xlink" x="0px" y="0px"
	 width="100%" viewBox="0 0 500 500" enable-background="new 0 0 500 500" xml:space="preserve">
<path fill="#000000" opacity="1.000000" stroke="none" 
	d="
M281.000000,501.000000 
	C187.333359,501.000000 94.166710,501.000000 1.000050,501.000000 
	C1.000033,334.333405 1.000033,167.666794 1.000017,1.000139 
	C167.666565,1.000093 334.333130,1.000093 500.999756,1.000046 
	C500.999847,167.666519 500.999847,334.333038 500.999939,500.999786 
	C427.833344,501.000000 354.666656,501.000000 281.000000,501.000000 
M303.587189,273.985474 
	C313.736359,274.360077 323.635681,273.326416 332.817383,268.557861 
	C341.699799,263.944763 347.363373,254.369308 346.289459,244.192169 
	C340.027649,244.192169 333.726379,244.153198 327.425934,244.205322 
	C322.916595,244.242615 317.439819,242.535812 316.956329,250.073303 
	C316.889954,251.107925 315.490143,252.347824 314.407928,252.977570 
	C308.915192,256.173828 302.784332,256.167664 297.488770,253.583069 
	C292.580719,251.187607 290.509491,246.080048 291.132263,239.916260 
	C309.747772,239.916260 328.165436,239.916260 347.243530,239.916260 
	C346.802338,234.928009 346.560028,230.366379 345.969543,225.850281 
	C344.134827,211.818420 336.323730,201.900467 322.829956,198.048889 
	C314.193878,195.583847 305.315186,193.935837 296.378998,196.081284 
	C290.042267,197.602676 283.441650,199.053238 277.763092,202.056244 
	C268.350098,207.034134 263.765747,216.049942 262.491730,226.331161 
	C261.053436,237.937622 261.356415,249.481262 268.958313,259.421997 
	C277.453705,270.531158 289.586517,273.325928 303.587189,273.985474 
M199.785858,196.000107 
	C198.544785,196.332047 197.318771,196.742722 196.060257,196.983582 
	C185.287827,199.045105 177.264877,204.830734 171.944870,214.457825 
	C166.679138,223.986771 167.247772,234.349426 168.502197,244.418884 
	C169.568314,252.976715 173.292831,260.944916 181.163925,265.766449 
	C199.865463,277.222382 219.423859,276.935120 238.806900,268.256714 
	C248.087799,264.101349 254.227219,253.213913 251.391998,244.409576 
	C242.439926,244.409576 233.498520,244.409576 224.618256,244.409576 
	C222.785751,253.427597 217.719666,256.426117 206.794617,254.967270 
	C201.275818,254.230347 195.542511,248.026291 197.317032,239.838303 
	C215.426865,239.838303 233.654785,239.838303 251.993149,239.838303 
	C251.993149,235.334839 252.385788,231.297165 251.919617,227.361206 
	C250.511902,215.475143 245.346130,203.946381 230.905685,198.891449 
	C220.984421,195.418488 210.977798,194.662003 199.785858,196.000107 
M131.996735,246.668243 
	C139.662292,235.343857 146.961365,223.744598 155.156601,212.817474 
	C158.940918,207.771667 159.332657,202.873032 158.797028,197.241577 
	C135.426636,197.241577 112.366341,197.241577 89.248932,197.241577 
	C89.248932,203.888321 89.248932,210.289062 89.248932,217.148499 
	C98.834793,217.148499 108.179169,217.148499 117.845909,217.148499 
	C108.364601,231.132019 99.413185,244.787643 89.932831,258.065613 
	C86.694412,262.601257 86.787491,266.991943 87.322891,271.639893 
	C112.068069,271.639893 136.449738,271.639893 160.709808,271.639893 
	C160.709808,265.012268 160.709808,258.749664 160.709808,252.242172 
	C150.037613,252.242172 139.643280,252.242172 128.593063,252.242172 
	C129.872299,250.320114 130.842865,248.861847 131.996735,246.668243 
M386.318848,197.001053 
	C377.580475,197.001053 368.842102,197.001053 360.024902,197.001053 
	C360.024902,222.804962 360.035309,247.922104 360.017609,273.039246 
	C360.013153,279.366241 357.377167,281.948853 351.010864,281.996521 
	C349.084351,282.010956 347.157623,281.998749 345.160828,281.998749 
	C345.160828,288.165771 345.160828,293.777557 345.160828,300.374725 
	C352.552338,300.910217 359.914703,302.257446 367.161285,301.794006 
	C380.938995,300.912842 388.343506,294.978027 388.740631,281.648590 
	C389.552887,254.384659 389.011261,227.079865 388.928070,199.792175 
	C388.925232,198.861343 387.857117,197.933762 386.318848,197.001053 
M389.000671,175.566071 
	C389.000671,173.463333 389.000671,171.360611 389.000671,169.265747 
	C379.073120,169.265747 369.676239,169.265747 360.283264,169.265747 
	C360.283264,175.932480 360.283264,182.330170 360.283264,188.727936 
	C369.962738,188.727936 379.357666,188.727936 389.000549,188.727936 
	C389.000549,184.488678 389.000549,180.519150 389.000671,175.566071 
z"/>
<path fill="#FDFDFD" opacity="1.000000" stroke="none" 
	d="
M303.105591,273.984619 
	C289.586517,273.325928 277.453705,270.531158 268.958313,259.421997 
	C261.356415,249.481262 261.053436,237.937622 262.491730,226.331161 
	C263.765747,216.049942 268.350098,207.034134 277.763092,202.056244 
	C283.441650,199.053238 290.042267,197.602676 296.378998,196.081284 
	C305.315186,193.935837 314.193878,195.583847 322.829956,198.048889 
	C336.323730,201.900467 344.134827,211.818420 345.969543,225.850281 
	C346.560028,230.366379 346.802338,234.928009 347.243530,239.916260 
	C328.165436,239.916260 309.747772,239.916260 291.132263,239.916260 
	C290.509491,246.080048 292.580719,251.187607 297.488770,253.583069 
	C302.784332,256.167664 308.915192,256.173828 314.407928,252.977570 
	C315.490143,252.347824 316.889954,251.107925 316.956329,250.073303 
	C317.439819,242.535812 322.916595,244.242615 327.425934,244.205322 
	C333.726379,244.153198 340.027649,244.192169 346.289459,244.192169 
	C347.363373,254.369308 341.699799,263.944763 332.817383,268.557861 
	C323.635681,273.326416 313.736359,274.360077 303.105591,273.984619 
M292.006378,221.874878 
	C291.688812,223.101028 291.371246,224.327194 290.990021,225.799255 
	C299.786469,225.799255 308.337524,225.799255 316.883698,225.799255 
	C317.031952,220.309006 315.005554,216.929245 310.616943,215.150909 
	C303.627289,212.318619 296.494720,214.646011 292.006378,221.874878 
z"/>
<path fill="#FEFEFE" opacity="1.000000" stroke="none" 
	d="
M200.234970,195.999100 
	C210.977798,194.662003 220.984421,195.418488 230.905685,198.891449 
	C245.346130,203.946381 250.511902,215.475143 251.919617,227.361206 
	C252.385788,231.297165 251.993149,235.334839 251.993149,239.838303 
	C233.654785,239.838303 215.426865,239.838303 197.317032,239.838303 
	C195.542511,248.026291 201.275818,254.230347 206.794617,254.967270 
	C217.719666,256.426117 222.785751,253.427597 224.618256,244.409576 
	C233.498520,244.409576 242.439926,244.409576 251.391998,244.409576 
	C254.227219,253.213913 248.087799,264.101349 238.806900,268.256714 
	C219.423859,276.935120 199.865463,277.222382 181.163925,265.766449 
	C173.292831,260.944916 169.568314,252.976715 168.502197,244.418884 
	C167.247772,234.349426 166.679138,223.986771 171.944870,214.457825 
	C177.264877,204.830734 185.287827,199.045105 196.060257,196.983582 
	C197.318771,196.742722 198.544785,196.332047 200.234970,195.999100 
M197.769379,222.630417 
	C197.479736,223.632736 197.190094,224.635056 196.836090,225.860077 
	C205.774307,225.860077 214.213989,225.860077 222.644684,225.860077 
	C223.027222,219.695938 220.219833,216.031418 213.882919,214.273026 
	C208.031815,212.649460 201.183807,215.905777 197.769379,222.630417 
z"/>
<path fill="#FEFEFE" opacity="1.000000" stroke="none" 
	d="
M131.905090,247.035904 
	C130.842865,248.861847 129.872299,250.320114 128.593063,252.242172 
	C139.643280,252.242172 150.037613,252.242172 160.709808,252.242172 
	C160.709808,258.749664 160.709808,265.012268 160.709808,271.639893 
	C136.449738,271.639893 112.068069,271.639893 87.322891,271.639893 
	C86.787491,266.991943 86.694412,262.601257 89.932831,258.065613 
	C99.413185,244.787643 108.364601,231.132019 117.845909,217.148499 
	C108.179169,217.148499 98.834793,217.148499 89.248932,217.148499 
	C89.248932,210.289062 89.248932,203.888321 89.248932,197.241577 
	C112.366341,197.241577 135.426636,197.241577 158.797028,197.241577 
	C159.332657,202.873032 158.940918,207.771667 155.156601,212.817474 
	C146.961365,223.744598 139.662292,235.343857 131.905090,247.035904 
z"/>
<path fill="#FEFEFE" opacity="1.000000" stroke="none" 
	d="
M386.802185,197.002853 
	C387.857117,197.933762 388.925232,198.861343 388.928070,199.792175 
	C389.011261,227.079865 389.552887,254.384659 388.740631,281.648590 
	C388.343506,294.978027 380.938995,300.912842 367.161285,301.794006 
	C359.914703,302.257446 352.552338,300.910217 345.160828,300.374725 
	C345.160828,293.777557 345.160828,288.165771 345.160828,281.998749 
	C347.157623,281.998749 349.084351,282.010956 351.010864,281.996521 
	C357.377167,281.948853 360.013153,279.366241 360.017609,273.039246 
	C360.035309,247.922104 360.024902,222.804962 360.024902,197.001053 
	C368.842102,197.001053 377.580475,197.001053 386.802185,197.002853 
z"/>
<path fill="#FEFEFE" opacity="1.000000" stroke="none" 
	d="
M389.000610,176.057846 
	C389.000549,180.519150 389.000549,184.488678 389.000549,188.727936 
	C379.357666,188.727936 369.962738,188.727936 360.283264,188.727936 
	C360.283264,182.330170 360.283264,175.932480 360.283264,169.265747 
	C369.676239,169.265747 379.073120,169.265747 389.000671,169.265747 
	C389.000671,171.360611 389.000671,173.463333 389.000610,176.057846 
z"/>
<path fill="#000000" opacity="1.000000" stroke="none" 
	d="
M292.144836,221.504089 
	C296.494720,214.646011 303.627289,212.318619 310.616943,215.150909 
	C315.005554,216.929245 317.031952,220.309006 316.883698,225.799255 
	C308.337524,225.799255 299.786469,225.799255 290.990021,225.799255 
	C291.371246,224.327194 291.688812,223.101028 292.144836,221.504089 
z"/>
<path fill="#000000" opacity="1.000000" stroke="none" 
	d="
M197.864899,222.237381 
	C201.183807,215.905777 208.031815,212.649460 213.882919,214.273026 
	C220.219833,216.031418 223.027222,219.695938 222.644684,225.860077 
	C214.213989,225.860077 205.774307,225.860077 196.836090,225.860077 
	C197.190094,224.635056 197.479736,223.632736 197.864899,222.237381 
z"/>
</svg>