 <svg  version="1.0" xmlns="http://www.w3.org/2000/svg"  width="300.000000pt" height="262.000000pt" viewBox="0 0 300.000000 262.000000"  preserveAspectRatio="xMidYMid meet">  <g transform="translate(0.000000,262.000000) scale(0.100000,-0.100000)" fill="#ffffff" stroke="none"> <path d="M1443 2446 c-151 -49 -242 -167 -251 -322 -5 -88 6 -124 38 -124 28 0 33 16 31 87 -4 121 51 218 151 269 143 72 317 13 384 -131 34 -73 33 -172 -2 -243 -27 -54 -26 -78 2 -89 23 -9 60 39 79 101 69 229 -85 452 -320 463 -41 2 -87 -3 -112 -11z"/> <path d="M613 2338 c-62 -62 -113 -120 -113 -128 0 -9 51 -66 114 -129 144 -144 150 -144 154 -3 l3 102 158 0 c170 0 190 6 176 50 -6 19 -14 20 -170 20 l-164 0 -3 98 c-4 135 -11 134 -155 -10z m87 -127 l0 -118 -57 56 -58 56 55 62 c30 34 56 62 58 62 1 1 2 -52 2 -118z"/> <path d="M2317 2443 c-4 -3 -7 -48 -7 -100 l0 -93 -164 0 c-157 0 -165 -1 -171 -20 -14 -44 6 -50 176 -50 l158 0 3 -102 c4 -141 10 -141 154 3 63 63 114 121 114 129 0 20 -221 240 -241 240 -9 0 -19 -3 -22 -7z m120 -292 l-57 -60 0 119 0 119 57 -60 56 -59 -56 -59z"/> <path d="M1495 2269 c-35 -11 -65 -34 -88 -69 -9 -14 -75 -209 -147 -435 -72 -225 -133 -412 -135 -414 -5 -5 -6 -1 -34 109 -25 98 -59 142 -122 158 -75 19 -146 -13 -182 -82 -19 -36 -19 -44 -7 -150 7 -61 12 -178 11 -261 -1 -186 9 -265 60 -461 46 -184 50 -269 18 -406 -20 -83 -20 -91 -5 -106 28 -28 49 -3 73 89 36 136 32 245 -16 431 -53 207 -61 269 -61 464 0 92 -5 208 -11 256 -14 105 -6 132 46 153 38 16 69 10 97 -21 9 -11 33 -82 53 -159 44 -173 49 -185 75 -185 28 0 23 -12 191 515 78 248 149 460 157 472 8 13 31 28 51 34 49 14 95 -7 118 -56 16 -33 15 -36 -96 -384 -62 -193 -111 -359 -109 -369 2 -10 14 -18 30 -20 25 -3 28 2 62 106 22 65 46 118 60 131 30 28 94 29 125 0 46 -43 46 -63 0 -207 -40 -125 -42 -133 -26 -150 27 -26 46 -6 78 83 15 44 36 85 46 93 42 30 98 27 133 -8 35 -35 35 -67 2 -170 -38 -113 -39 -136 -12 -145 23 -7 50 10 50 31 0 7 9 38 21 69 23 61 54 85 109 85 42 0 90 -47 90 -87 0 -47 -98 -340 -146 -438 -25 -52 -69 -120 -104 -160 -123 -143 -260 -368 -260 -427 0 -18 7 -29 20 -33 26 -8 47 8 55 45 13 61 122 225 271 410 20 25 58 90 85 145 57 117 149 398 149 452 0 52 -37 113 -85 141 -31 18 -51 22 -92 19 -50 -3 -51 -3 -57 26 -17 83 -98 144 -181 135 -43 -5 -43 -5 -43 26 -1 88 -73 156 -168 156 l-50 0 58 177 c31 98 60 190 63 205 16 71 -45 166 -120 187 -46 13 -59 13 -100 0z m91 -591 c4 -6 -1 -17 -11 -24 -23 -17 -29 -12 -20 15 7 23 20 27 31 9z m-439 -357 c6 -2 -20 -61 -27 -61 -8 0 -20 34 -20 57 0 10 25 12 47 4z"/> </g> </svg> 